<?xml version="1.0" standalone="no"?>
<!DOCTYPE svg PUBLIC "-//W3C//DTD SVG 20010904//EN"
 "http://www.w3.org/TR/2001/REC-SVG-20010904/DTD/svg10.dtd">
<svg version="1.0" xmlns="http://www.w3.org/2000/svg"
 width="600.000000pt" height="600.000000pt" viewBox="0 0 600.000000 600.000000"
 preserveAspectRatio="xMidYMid meet">
<metadata>
Created by potrace 1.11, written by Peter Selinger 2001-2013
</metadata>
<g transform="translate(0.000000,600.000000) scale(0.100000,-0.100000)"
fill="#000000" stroke="none">
<path d="M2942 4490 c-104 -15 -212 -89 -266 -182 -53 -93 -52 -61 -50 -1328
1 -1292 -3 -1208 61 -1305 180 -273 611 -194 676 124 9 43 12 363 12 1222 -1
1093 -2 1167 -19 1217 -18 54 -67 126 -114 168 -38 34 -120 73 -167 79 -22 3
-49 7 -60 9 -11 2 -44 0 -73 -4z"/>
<path d="M1804 4234 c-102 -30 -179 -98 -214 -190 -22 -59 -22 -61 -22 -779 0
-492 3 -733 11 -760 25 -94 104 -178 196 -210 178 -61 371 44 410 224 10 45
10 1424 0 1476 -10 54 -51 128 -90 164 -78 71 -199 102 -291 75z"/>
<path d="M4030 3701 c-104 -32 -193 -127 -215 -230 -4 -19 -7 -360 -7 -757 l0
-722 25 -55 c73 -159 235 -229 398 -171 75 27 149 102 178 179 l23 60 0 722
c0 543 -3 731 -12 760 -44 137 -163 224 -303 222 -34 0 -73 -4 -87 -8z"/>
<path d="M5050 3530 c-73 -20 -133 -72 -163 -139 -20 -43 -21 -64 -21 -326 0
-262 1 -283 21 -325 40 -87 111 -137 208 -147 100 -10 210 56 251 152 15 34
18 78 18 305 1 189 -2 279 -11 311 -16 56 -72 123 -126 151 -43 22 -132 31
-177 18z"/>
<path d="M868 3405 c-2 -2 -19 -5 -39 -8 -71 -9 -148 -76 -179 -156 -22 -54
-16 -549 7 -617 48 -142 234 -211 361 -132 62 38 104 96 118 162 5 24 5 248 0
436 -3 104 -7 133 -26 172 -24 53 -76 103 -126 124 -31 13 -109 26 -116 19z"/>
</g>
</svg>
